<svg xmlns="http://www.w3.org/2000/svg" viewBox="0 0 384 512"><!--! Font Awesome Free 6.4.0 by @fontawesome - https://fontawesome.com License - https://fontawesome.com/license/free (Icons: CC BY 4.0, Fonts: SIL OFL 1.1, Code: MIT License) --><path d="M64 0C28.7 0 0 28.7 0 64V448c0 35.3 28.7 64 64 64H320c35.3 0 64-28.7 64-64V160c0-17-6.7-33.3-18.7-45.3l-96-96C257.3 6.7 241 0 224 0H64zm0 48H224V160c0 17.7 14.3 32 32 32H336V448c0 8.8-7.2 16-16 16H64c-8.8 0-16-7.2-16-16V64c0-8.8 7.2-16 16-16zm240 112L272 80v80h32zM96 272c0-8.8 7.2-16 16-16h32c17.7 0 32 14.3 32 32v16c0 17.7-14.3 32-32 32h-16v16c0 8.8-7.2 16-16 16s-16-7.2-16-16V272zm32 16v16h16c8.8 0 16-7.2 16-16v-16c0-8.8-7.2-16-16-16h-16zm80-16c0-8.8 7.2-16 16-16h32c17.7 0 32 14.3 32 32v16c0 17.7-14.3 32-32 32h-16v16c0 8.8-7.2 16-16 16s-16-7.2-16-16V272zm32 16v16h16c8.8 0 16-7.2 16-16v-16c0-8.8-7.2-16-16-16h-16zm-144 80c0-8.8 7.2-16 16-16h32c8.8 0 16 7.2 16 16s-7.2 16-16 16H128v16c0 8.8-7.2 16-16 16s-16-7.2-16-16V352zm32 16v16h16c8.8 0 16-7.2 16-16s-7.2-16-16-16h-16z"/></svg>